<?xml version="1.0" encoding="UTF-8" standalone="no"?><!DOCTYPE svg PUBLIC "-//W3C//DTD SVG 1.1//EN" "http://www.w3.org/Graphics/SVG/1.1/DTD/svg11.dtd"><svg width="100%" height="100%" viewBox="0 0 542 117" version="1.1" xmlns="http://www.w3.org/2000/svg" xmlns:xlink="http://www.w3.org/1999/xlink" xml:space="preserve" xmlns:serif="http://www.serif.com/" style="fill-rule:evenodd;clip-rule:evenodd;stroke-linejoin:round;stroke-miterlimit:2;"><g><path d="M101.145,72.502l-32.692,-0l-17.88,17.878l-17.881,-17.878l-32.692,-0l-0,17.878l25.285,-0l12.644,12.643l12.643,12.644l12.644,-12.644l12.641,-12.643l25.288,-0l0,-17.878Z" style="fill:#ff6336;fill-rule:nonzero;"/><rect x="0" y="36.735" width="101.145" height="17.88" style="fill:#ffc500;fill-rule:nonzero;"/><rect x="0" y="0.977" width="101.145" height="17.88" style="fill:#a4a14a;fill-rule:nonzero;"/><rect x="141.358" y="0.977" width="16.085" height="87.74" style="fill:#fff;fill-rule:nonzero;"/><path d="M182.48,86.218c-5.08,-2.804 -9.101,-6.642 -12.065,-11.518c-2.968,-4.873 -4.448,-10.237 -4.448,-16.085c-0,-5.848 1.48,-11.21 4.448,-16.086c2.964,-4.873 6.985,-8.713 12.065,-11.517c5.074,-2.803 10.581,-4.205 16.513,-4.205c5.929,-0 11.433,1.402 16.512,4.205c5.075,2.804 9.097,6.641 12.065,11.517c2.963,4.874 4.448,10.238 4.448,16.086c0,5.848 -1.483,11.21 -4.448,16.085c-2.968,4.874 -6.99,8.714 -12.065,11.518c-5.079,2.803 -10.583,4.205 -16.512,4.205c-5.932,-0 -11.436,-1.402 -16.513,-4.205Zm24.983,-12.794c2.558,-1.421 4.608,-3.432 6.152,-6.032c1.542,-2.6 2.318,-5.524 2.318,-8.775c-0,-3.248 -0.774,-6.172 -2.318,-8.774c-1.544,-2.6 -3.594,-4.611 -6.152,-6.033c-2.558,-1.421 -5.384,-2.133 -8.47,-2.133c-3.089,0 -5.91,0.712 -8.47,2.133c-2.559,1.422 -4.611,3.433 -6.155,6.033c-1.547,2.6 -2.315,5.526 -2.315,8.774c-0,3.251 0.768,6.175 2.315,8.775c1.542,2.6 3.594,4.611 6.155,6.032c2.558,1.421 5.379,2.134 8.47,2.134c3.086,-0.003 5.909,-0.713 8.47,-2.134Z" style="fill:#fff;fill-rule:nonzero;"/><path d="M240.544,0.977l16.085,-0l0,52.278l20.959,-24.737l19.13,-0l-23.64,27.907l25.347,32.292l-20.594,-0l-21.202,-27.907l0,27.907l-16.085,-0l-0,-87.74Z" style="fill:#fff;fill-rule:nonzero;"/><path d="M313.602,86.525c-4.51,-2.6 -8.166,-6.317 -10.967,-11.151c-2.804,-4.832 -4.206,-10.419 -4.206,-16.756c0,-5.767 1.341,-11.09 4.022,-15.963c2.681,-4.873 6.337,-8.733 10.969,-11.576c4.63,-2.843 9.705,-4.264 15.232,-4.264c3.898,-0 7.453,0.65 10.66,1.949c3.208,1.299 5.666,3.047 7.372,5.239l0,-5.484l16.086,-0l-0,60.199l-16.086,-0l0,-5.485c-2.519,2.357 -5.2,4.142 -8.043,5.362c-2.845,1.218 -6.501,1.829 -10.969,1.829c-4.871,0.002 -9.56,-1.299 -14.07,-3.899Zm29.306,-15.84c3.005,-3.248 4.51,-7.27 4.51,-12.065c0,-4.792 -1.505,-8.813 -4.51,-12.064c-3.005,-3.248 -6.987,-4.873 -11.941,-4.873c-4.957,-0 -8.94,1.627 -11.945,4.873c-3.005,3.251 -4.507,7.272 -4.507,12.064c-0,4.795 1.502,8.817 4.507,12.065c3.005,3.25 6.985,4.873 11.945,4.873c4.954,0 8.936,-1.623 11.941,-4.873Z" style="fill:#fff;fill-rule:nonzero;"/><rect x="374.471" y="0.977" width="16.086" height="87.74" style="fill:#fff;fill-rule:nonzero;"/><path d="M403.111,17.303c-1.949,-1.949 -2.924,-4.306 -2.924,-7.068c0,-2.843 0.975,-5.259 2.924,-7.25c1.949,-1.988 4.307,-2.985 7.069,-2.985c2.84,0 5.259,0.997 7.249,2.985c1.988,1.991 2.988,4.407 2.988,7.25c-0,2.762 -0.996,5.119 -2.988,7.068c-1.99,1.95 -4.409,2.924 -7.249,2.924c-2.762,0.003 -5.12,-0.974 -7.069,-2.924Zm-0.854,11.213l16.085,-0l-0,60.199l-16.085,-0l-0,-60.199Z" style="fill:#fff;fill-rule:nonzero;"/><path d="M429.313,84.562l3.658,-15.111l0.729,-0c5.279,4.063 10.683,6.093 16.208,6.093c2.275,0 4.121,-0.427 5.546,-1.279c1.421,-0.852 2.134,-2.089 2.134,-3.717c-0,-1.706 -0.838,-3.086 -2.5,-4.141c-1.667,-1.056 -4.775,-2.355 -9.321,-3.902c-4.629,-1.541 -8.225,-3.778 -10.784,-6.702c-2.558,-2.924 -3.841,-6.376 -3.841,-10.358c-0,-5.605 2.091,-10.115 6.275,-13.528c4.183,-3.412 9.483,-5.118 15.904,-5.118c3.25,-0 6.133,0.304 8.654,0.913c2.517,0.609 4.913,1.605 7.188,2.985l0.612,15.354l-0.854,0c-2.925,-1.868 -5.525,-3.267 -7.8,-4.203c-2.275,-0.933 -4.833,-1.402 -7.675,-1.402c-2.033,0 -3.7,0.408 -4.996,1.218c-1.3,0.813 -1.95,1.871 -1.95,3.17c0,1.706 0.813,3.108 2.438,4.205c1.62,1.098 4.67,2.419 9.137,3.96c5.117,1.706 8.996,3.779 11.638,6.216c2.641,2.436 3.962,6.214 3.962,11.333c0,4.225 -1.058,7.842 -3.171,10.847c-2.112,3.007 -4.896,5.261 -8.35,6.764c-3.45,1.502 -7.25,2.254 -11.391,2.254c-8.371,-0 -15.521,-1.95 -21.45,-5.851Z" style="fill:#fff;fill-rule:nonzero;"/><path d="M496.333,86.151c-5.037,-2.843 -8.995,-6.722 -11.879,-11.637c-2.887,-4.915 -4.329,-10.378 -4.329,-16.39c0,-5.848 1.363,-11.151 4.083,-15.902c2.725,-4.753 6.505,-8.509 11.338,-11.271c4.829,-2.762 10.296,-4.144 16.387,-4.144c6.171,-0 11.517,1.443 16.025,4.326c4.504,2.884 7.917,6.722 10.234,11.516c2.316,4.795 3.475,9.953 3.475,15.477l-0,4.753l-46.188,0c0.975,4.552 3.067,8.004 6.275,10.359c3.213,2.356 7.454,3.532 12.738,3.532c8.041,0 15.066,-2.639 21.079,-7.92l1.708,0l-0.612,15.231c-3.655,2.114 -7.513,3.698 -11.575,4.754c-4.063,1.055 -7.963,1.583 -11.7,1.583c-6.334,-0.003 -12.021,-1.424 -17.059,-4.267Zm29.25,-34.243c-0.408,-3.656 -1.933,-6.521 -4.571,-8.591c-2.641,-2.069 -5.87,-3.108 -9.687,-3.108c-3.738,0 -7.008,0.997 -9.813,2.985c-2.8,1.991 -4.691,4.896 -5.666,8.714l29.737,-0Z" style="fill:#fff;fill-rule:nonzero;"/></g></svg>